<svg xmlns="http://www.w3.org/2000/svg" xmlns:xlink="http://www.w3.org/1999/xlink" width="150" height="100" viewBox="0 0 112.5 75" version="1.2"><defs><symbol overflow="visible" id="d"><path d="M1.469-11.203h4.593c1.676 0 3.063.527 4.157 1.578 1.101 1.055 1.656 2.39 1.656 4.016 0 1.625-.555 2.968-1.656 4.03C9.113-.522 7.71 0 6.016 0H1.469zm1.89 1.687v7.813h2.766c1.094 0 2.004-.363 2.734-1.094.739-.726 1.11-1.656 1.11-2.781 0-1.133-.383-2.07-1.14-2.813-.75-.75-1.684-1.125-2.798-1.125zm0 0"/></symbol><symbol overflow="visible" id="e"><path d="M9.484-9.516H3.36v3.032h5.485v1.703H3.359v3.078h6.313V0H1.469v-11.203h8.015zm0 0"/></symbol><symbol overflow="visible" id="f"><path d="M3.36-1.719h4.859V0h-6.75v-11.203h1.89zm0 0"/></symbol><symbol overflow="visible" id="g"><path d="M3.36 0H1.468v-11.203h1.89zm0 0"/></symbol><symbol overflow="visible" id="h"><path d="M5.156-11.297c1.446 0 2.754.387 3.922 1.156l-.781 1.672c-1.149-.695-2.242-1.047-3.281-1.047-.575 0-1.024.106-1.344.313a.949.949 0 00-.485.86c0 .374.145.695.438.952.3.262.676.454 1.125.579.445.125.93.28 1.453.468a17.3 17.3 0 011.469.594c.445.21.816.54 1.11.984.288.438.437.97.437 1.594 0 .98-.39 1.766-1.172 2.36C7.266-.228 6.25.063 5 .063a6.776 6.776 0 01-2.484-.47A6.61 6.61 0 01.422-1.718l.812-1.625c.563.524 1.18.922 1.86 1.203.676.282 1.32.422 1.937.422.657 0 1.164-.117 1.532-.36.375-.237.562-.57.562-1 0-.382-.152-.706-.453-.968-.293-.258-.664-.445-1.11-.562a27.74 27.74 0 01-1.468-.454 16.16 16.16 0 01-1.453-.562 2.633 2.633 0 01-1.125-.953c-.293-.438-.438-.969-.438-1.594 0-.945.367-1.703 1.11-2.265.75-.57 1.738-.86 2.968-.86zm0 0"/></symbol><symbol overflow="visible" id="i"><path d="M11.188 0H9.312v-4.64H3.36V0H1.47v-11.203h1.89v4.86h5.954v-4.86h1.874zm0 0"/></symbol><clipPath id="a"><path d="M39 5.594h34v37.078H39zm0 0"/></clipPath><clipPath id="b"><path d="M4.203 5.594H40v37.078H4.203zm0 0"/></clipPath><clipPath id="c"><path d="M72 5.594h36.309v37.078H72zm0 0"/></clipPath></defs><g clip-path="url(#a)"><path d="M57.453 42.668c.016-2.688.031-5.469.043-5.77.02-.476.05-.898.078-1.265 3.79-.805 6.656-4.594 6.656-9.153 0-5.136-3.652-15.218-8.16-15.218-.375 0-.746.074-1.113.207l-.008.004a3.37 3.37 0 00-.367.16l-.02.008a4.443 4.443 0 00-.351.195l-.027.016c-.118.07-.23.148-.344.23l-.028.023a6.718 6.718 0 00-.34.266l-.023.024a8.523 8.523 0 00-.332.304l-.02.02c-.113.11-.222.222-.331.344l-.012.011c-1.133 1.25-2.133 3.024-2.922 4.95l-.012.03c-.066.165-.133.329-.195.497l-.047.11-.164.448-.059.168c-.05.137-.097.278-.144.418-.023.067-.047.133-.066.2a13.59 13.59 0 00-.125.39 5.13 5.13 0 00-.075.23c-.035.126-.07.247-.11.368l-.07.258-.093.343-.07.274c-.028.11-.059.219-.082.328a7.512 7.512 0 00-.067.285c-.027.102-.05.207-.07.313-.024.097-.043.195-.063.293l-.058.296c-.02.098-.04.2-.055.297-.02.094-.035.188-.05.282l-.048.3c-.011.086-.027.176-.039.262a13.06 13.06 0 00-.039.309 4.97 4.97 0 01-.031.238c-.012.105-.02.21-.027.316-.008.07-.016.145-.02.215-.008.113-.016.223-.02.332l-.011.176c-.004.164-.008.324-.008.48 0 .262.012.524.031.782 0 .031 0 .066.004.101.02.242.051.485.086.723.008.039.012.082.02.121a10.172 10.172 0 00.367 1.512v.004c.082.25.172.496.27.734l.003.004c.098.238.203.465.317.687l.015.032c.114.222.239.441.368.652l.003.004c1.204 1.95 3.04 3.344 5.172 3.797.024.367.059.789.075 1.265.011.301.027 3.082.042 5.77a18.624 18.624 0 01-15.156-9.969 18.412 18.412 0 002.078-8.523 18.4 18.4 0 00-2.078-8.524A18.617 18.617 0 0156.071 5.63a18.625 18.625 0 0116.705 10.35 18.384 18.384 0 00-1.898 8.176c0 2.942.683 5.723 1.91 8.192a18.638 18.638 0 01-15.336 10.32" fill="#df172b"/></g><g clip-path="url(#b)"><path d="M24.371 42.668c.016-2.828.035-5.93.047-6.25.02-.527.059-.992.082-1.387 2.672-.972 4.664-4.457 4.703-8.636h-.012c.004-.067.008-.137.004-.204-.379-4.55-.761-9.105-1.144-13.652-.07-.875-.313-1.574-.535-1.574h-.004c-.223.004-.43.719-.465 1.598-.18 4.558-.356 9.12-.531 13.683 0 .05.004.102.007.149h-.574c0-.055.008-.11.004-.168-.262-4.559-.52-9.122-.781-13.676-.047-.88-.274-1.586-.496-1.586-.223 0-.45.703-.508 1.582-.297 4.55-.598 9.11-.898 13.668-.004.062.003.12.007.18h-.574c0-.055.008-.106.004-.16-.234-4.563-.477-9.126-.715-13.684-.043-.875-.265-1.586-.488-1.586-.227 0-.453.703-.516 1.578l-.96 13.668c-.005.062 0 .121.003.184h-.578c.004-.047.012-.098.012-.149-.168-4.23-.328-8.46-.492-12.691v-.004c-.016-.328-.028-.66-.04-.989-.035-.878-.242-1.593-.468-1.597h-.004c-.219 0-.461.7-.531 1.574-.383 4.547-.77 9.102-1.145 13.652a1.176 1.176 0 000 .204h-.008c.004.289.016.57.035.851.008.09.02.18.028.274.02.183.039.37.062.55.016.11.035.215.051.32.027.16.059.325.09.481a10.101 10.101 0 00.184.766c.035.113.062.226.097.34.04.128.086.253.13.378.042.118.077.239.124.352l.012.031a10.291 10.291 0 00.566 1.2c.082.148.172.292.262.433.027.047.055.094.082.137a11.534 11.534 0 00.363.508c.114.148.23.289.348.422l.008.007c.664.739 1.426 1.282 2.261 1.586.016.258.04.547.06.864a12.393 12.393 0 01.023.523c.011.32.03 3.422.046 6.25-9.636-.707-17.238-8.711-17.238-18.492 0-10.242 8.336-18.547 18.617-18.547 7.2 0 13.442 4.066 16.543 10.023a18.4 18.4 0 00-2.078 8.524c0 3.07.75 5.969 2.078 8.523a18.635 18.635 0 01-15.16 9.969" fill="#df172b"/></g><path d="M39.531 32.7a18.424 18.424 0 01-2.078-8.524 18.4 18.4 0 012.078-8.524 18.4 18.4 0 012.078 8.524c0 3.074-.75 5.969-2.078 8.523" fill="#fff"/><g clip-path="url(#c)"><path d="M90.05 42.688a75.655 75.655 0 01.032-2.903c.004-.12.008-.574.012-1.2h.84a1.941 1.941 0 001.945-1.937s.008-26.707-3.11-26.707c-.316 0-.62.086-.89.23l-.004.005a1.972 1.972 0 00-.566.449l-.055.066a4.315 4.315 0 00-.121.16c-.047.079-.094.16-.133.247-.016.03-.027.066-.04.097a1.491 1.491 0 00-.073.235l-.024.101a1.9 1.9 0 00-.035.344s.047 27.645.05 27.91c.024.856.036 1.817.032 2.848-6.648-.559-12.305-4.602-15.12-10.285a18.382 18.382 0 001.901-8.172c0-2.942-.691-5.727-1.914-8.196a18.63 18.63 0 0116.72-10.375c10.28 0 18.616 8.305 18.616 18.551 0 10.059-8.039 18.239-18.062 18.532" fill="#df172b"/></g><path d="M72.79 32.348a18.354 18.354 0 01-1.911-8.192c0-2.937.68-5.71 1.898-8.176a18.426 18.426 0 011.914 8.196c0 2.933-.683 5.707-1.902 8.172" fill="#fff"/><use xlink:href="#d" x="20.762" y="66.133" fill="#212121"/><use xlink:href="#e" x="35.583" y="66.133" fill="#212121"/><use xlink:href="#f" x="48.496" y="66.133" fill="#212121"/><use xlink:href="#g" x="59.455" y="66.133" fill="#212121"/><use xlink:href="#h" x="66.697" y="66.133" fill="#212121"/><use xlink:href="#i" x="79.066" y="66.133" fill="#212121"/></svg>